<svg id="visual" viewBox="0 0 960 540" width="960" height="540" xmlns="http://www.w3.org/2000/svg" xmlns:xlink="http://www.w3.org/1999/xlink" version="1.1"><rect x="0" y="0" width="960" height="540" fill="#00223C"></rect><path d="M0 391L22.8 383C45.7 375 91.3 359 137 355.5C182.7 352 228.3 361 274 370.7C319.7 380.3 365.3 390.7 411.2 382C457 373.3 503 345.7 548.8 339C594.7 332.3 640.3 346.7 686 357.2C731.7 367.7 777.3 374.3 823 381.5C868.7 388.7 914.3 396.3 937.2 400.2L960 404L960 541L937.2 541C914.3 541 868.7 541 823 541C777.3 541 731.7 541 686 541C640.3 541 594.7 541 548.8 541C503 541 457 541 411.2 541C365.3 541 319.7 541 274 541C228.3 541 182.7 541 137 541C91.3 541 45.7 541 22.8 541L0 541Z" fill="#fbb3f1"></path><path d="M0 409L22.8 406.7C45.7 404.3 91.3 399.7 137 401.2C182.7 402.7 228.3 410.3 274 410.7C319.7 411 365.3 404 411.2 405.2C457 406.3 503 415.7 548.8 410.3C594.7 405 640.3 385 686 386.2C731.7 387.3 777.3 409.7 823 412.3C868.7 415 914.3 398 937.2 389.5L960 381L960 541L937.2 541C914.3 541 868.7 541 823 541C777.3 541 731.7 541 686 541C640.3 541 594.7 541 548.8 541C503 541 457 541 411.2 541C365.3 541 319.7 541 274 541C228.3 541 182.7 541 137 541C91.3 541 45.7 541 22.8 541L0 541Z" fill="#c6a3e6"></path><path d="M0 452L22.8 453C45.7 454 91.3 456 137 448.2C182.7 440.3 228.3 422.7 274 414.7C319.7 406.7 365.3 408.3 411.2 416.2C457 424 503 438 548.8 442C594.7 446 640.3 440 686 432.3C731.7 424.7 777.3 415.3 823 414C868.7 412.7 914.3 419.3 937.2 422.7L960 426L960 541L937.2 541C914.3 541 868.7 541 823 541C777.3 541 731.7 541 686 541C640.3 541 594.7 541 548.8 541C503 541 457 541 411.2 541C365.3 541 319.7 541 274 541C228.3 541 182.7 541 137 541C91.3 541 45.7 541 22.8 541L0 541Z" fill="#9094d3"></path><path d="M0 476L22.8 473.5C45.7 471 91.3 466 137 459.5C182.7 453 228.3 445 274 446.8C319.7 448.7 365.3 460.3 411.2 467.2C457 474 503 476 548.8 469.5C594.7 463 640.3 448 686 447C731.7 446 777.3 459 823 459.2C868.7 459.3 914.3 446.7 937.2 440.3L960 434L960 541L937.2 541C914.3 541 868.7 541 823 541C777.3 541 731.7 541 686 541C640.3 541 594.7 541 548.8 541C503 541 457 541 411.2 541C365.3 541 319.7 541 274 541C228.3 541 182.7 541 137 541C91.3 541 45.7 541 22.8 541L0 541Z" fill="#5c83b8"></path><path d="M0 507L22.8 503.3C45.7 499.7 91.3 492.3 137 488.2C182.7 484 228.3 483 274 485.8C319.7 488.7 365.3 495.3 411.2 495.5C457 495.7 503 489.3 548.8 484.3C594.7 479.3 640.3 475.7 686 475.2C731.7 474.7 777.3 477.3 823 479.3C868.7 481.3 914.3 482.7 937.2 483.3L960 484L960 541L937.2 541C914.3 541 868.7 541 823 541C777.3 541 731.7 541 686 541C640.3 541 594.7 541 548.8 541C503 541 457 541 411.2 541C365.3 541 319.7 541 274 541C228.3 541 182.7 541 137 541C91.3 541 45.7 541 22.8 541L0 541Z" fill="#2b7198"></path></svg>